<svg width="194" height="45" viewBox="0 0 194 45" fill="none" xmlns="http://www.w3.org/2000/svg">
<path d="M2.772 37V10.18H11.556C14.34 10.18 16.752 10.744 18.792 11.872C20.856 12.976 22.452 14.536 23.58 16.552C24.708 18.568 25.272 20.908 25.272 23.572C25.272 26.212 24.708 28.552 23.58 30.592C22.452 32.608 20.856 34.18 18.792 35.308C16.752 36.436 14.34 37 11.556 37H2.772ZM7.02 33.22H11.628C13.524 33.22 15.168 32.824 16.56 32.032C17.976 31.24 19.068 30.124 19.836 28.684C20.604 27.244 20.988 25.54 20.988 23.572C20.988 21.604 20.592 19.912 19.8 18.496C19.032 17.056 17.952 15.94 16.56 15.148C15.168 14.356 13.524 13.96 11.628 13.96H7.02V33.22ZM34.7158 37.432C33.3958 37.432 32.2318 37.204 31.2238 36.748C30.2398 36.268 29.4718 35.62 28.9198 34.804C28.3678 33.964 28.0918 32.98 28.0918 31.852C28.0918 30.796 28.3198 29.848 28.7758 29.008C29.2558 28.168 29.9878 27.46 30.9718 26.884C31.9558 26.308 33.1918 25.9 34.6798 25.66L41.4478 24.544V27.748L35.4718 28.792C34.3918 28.984 33.5998 29.332 33.0958 29.836C32.5918 30.316 32.3398 30.94 32.3398 31.708C32.3398 32.452 32.6158 33.064 33.1678 33.544C33.7438 34 34.4758 34.228 35.3638 34.228C36.4678 34.228 37.4278 33.988 38.2438 33.508C39.0838 33.028 39.7318 32.392 40.1878 31.6C40.6438 30.784 40.8718 29.884 40.8718 28.9V23.896C40.8718 22.936 40.5118 22.156 39.7918 21.556C39.0958 20.932 38.1598 20.62 36.9838 20.62C35.9038 20.62 34.9558 20.908 34.1398 21.484C33.3478 22.036 32.7598 22.756 32.3758 23.644L28.9918 21.952C29.3518 20.992 29.9398 20.152 30.7558 19.432C31.5718 18.688 32.5198 18.112 33.5998 17.704C34.7038 17.296 35.8678 17.092 37.0918 17.092C38.6278 17.092 39.9838 17.38 41.1598 17.956C42.3598 18.532 43.2838 19.336 43.9318 20.368C44.6038 21.376 44.9398 22.552 44.9398 23.896V37H41.0518V33.472L41.8798 33.58C41.4238 34.372 40.8358 35.056 40.1158 35.632C39.4198 36.208 38.6158 36.652 37.7038 36.964C36.8158 37.276 35.8198 37.432 34.7158 37.432ZM56.8963 37.432C54.9043 37.432 53.1523 36.94 51.6403 35.956C50.1523 34.972 49.1083 33.652 48.5083 31.996L51.6403 30.52C52.1683 31.624 52.8883 32.5 53.8003 33.148C54.7363 33.796 55.7683 34.12 56.8963 34.12C57.8563 34.12 58.6363 33.904 59.2363 33.472C59.8363 33.04 60.1363 32.452 60.1363 31.708C60.1363 31.228 60.0043 30.844 59.7403 30.556C59.4763 30.244 59.1403 29.992 58.7323 29.8C58.3483 29.608 57.9523 29.464 57.5443 29.368L54.4843 28.504C52.8043 28.024 51.5443 27.304 50.7043 26.344C49.8883 25.36 49.4803 24.22 49.4803 22.924C49.4803 21.748 49.7803 20.728 50.3803 19.864C50.9803 18.976 51.8083 18.292 52.8643 17.812C53.9203 17.332 55.1083 17.092 56.4283 17.092C58.2043 17.092 59.7883 17.536 61.1803 18.424C62.5723 19.288 63.5563 20.5 64.1323 22.06L61.0003 23.536C60.6163 22.6 60.0043 21.856 59.1643 21.304C58.3483 20.752 57.4243 20.476 56.3923 20.476C55.5043 20.476 54.7963 20.692 54.2683 21.124C53.7403 21.532 53.4763 22.072 53.4763 22.744C53.4763 23.2 53.5963 23.584 53.8363 23.896C54.0763 24.184 54.3883 24.424 54.7723 24.616C55.1563 24.784 55.5523 24.928 55.9603 25.048L59.1283 25.984C60.7363 26.44 61.9723 27.16 62.8363 28.144C63.7003 29.104 64.1323 30.256 64.1323 31.6C64.1323 32.752 63.8203 33.772 63.1963 34.66C62.5963 35.524 61.7563 36.208 60.6763 36.712C59.5963 37.192 58.3363 37.432 56.8963 37.432ZM76.5422 37.216C74.5022 37.216 72.9182 36.64 71.7902 35.488C70.6622 34.336 70.0982 32.716 70.0982 30.628V21.196H66.6782V17.524H67.2182C68.1302 17.524 68.8382 17.26 69.3422 16.732C69.8462 16.204 70.0982 15.484 70.0982 14.572V13.06H74.1662V17.524H78.5942V21.196H74.1662V30.448C74.1662 31.12 74.2742 31.696 74.4902 32.176C74.7062 32.632 75.0542 32.992 75.5342 33.256C76.0142 33.496 76.6382 33.616 77.4062 33.616C77.5982 33.616 77.8142 33.604 78.0542 33.58C78.2942 33.556 78.5222 33.532 78.7382 33.508V37C78.4022 37.048 78.0302 37.096 77.6222 37.144C77.2142 37.192 76.8542 37.216 76.5422 37.216ZM91.5005 37.432C89.5565 37.432 87.8285 36.988 86.3165 36.1C84.8285 35.188 83.6645 33.964 82.8245 32.428C81.9845 30.868 81.5645 29.128 81.5645 27.208C81.5645 25.24 81.9845 23.5 82.8245 21.988C83.6885 20.476 84.8405 19.288 86.2805 18.424C87.7205 17.536 89.3525 17.092 91.1765 17.092C92.6405 17.092 93.9485 17.344 95.1005 17.848C96.2525 18.352 97.2245 19.048 98.0165 19.936C98.8085 20.8 99.4085 21.796 99.8165 22.924C100.248 24.052 100.464 25.252 100.464 26.524C100.464 26.836 100.452 27.16 100.428 27.496C100.404 27.832 100.356 28.144 100.284 28.432H84.7685V25.192H97.9805L96.0365 26.668C96.2765 25.492 96.1925 24.448 95.7845 23.536C95.4005 22.6 94.8005 21.868 93.9845 21.34C93.1925 20.788 92.2565 20.512 91.1765 20.512C90.0965 20.512 89.1365 20.788 88.2965 21.34C87.4565 21.868 86.8085 22.636 86.3525 23.644C85.8965 24.628 85.7165 25.828 85.8125 27.244C85.6925 28.564 85.8725 29.716 86.3525 30.7C86.8565 31.684 87.5525 32.452 88.4405 33.004C89.3525 33.556 90.3845 33.832 91.5365 33.832C92.7125 33.832 93.7085 33.568 94.5245 33.04C95.3645 32.512 96.0245 31.828 96.5045 30.988L99.8165 32.608C99.4325 33.52 98.8325 34.348 98.0165 35.092C97.2245 35.812 96.2645 36.388 95.1365 36.82C94.0325 37.228 92.8205 37.432 91.5005 37.432ZM113.579 37.432C111.635 37.432 109.907 36.988 108.395 36.1C106.907 35.188 105.743 33.964 104.903 32.428C104.063 30.868 103.643 29.128 103.643 27.208C103.643 25.24 104.063 23.5 104.903 21.988C105.767 20.476 106.919 19.288 108.359 18.424C109.799 17.536 111.431 17.092 113.255 17.092C114.719 17.092 116.027 17.344 117.179 17.848C118.331 18.352 119.303 19.048 120.095 19.936C120.887 20.8 121.487 21.796 121.895 22.924C122.327 24.052 122.543 25.252 122.543 26.524C122.543 26.836 122.531 27.16 122.507 27.496C122.483 27.832 122.435 28.144 122.363 28.432H106.847V25.192H120.059L118.115 26.668C118.355 25.492 118.271 24.448 117.863 23.536C117.479 22.6 116.879 21.868 116.063 21.34C115.271 20.788 114.335 20.512 113.255 20.512C112.175 20.512 111.215 20.788 110.375 21.34C109.535 21.868 108.887 22.636 108.431 23.644C107.975 24.628 107.795 25.828 107.891 27.244C107.771 28.564 107.951 29.716 108.431 30.7C108.935 31.684 109.631 32.452 110.519 33.004C111.431 33.556 112.463 33.832 113.615 33.832C114.791 33.832 115.787 33.568 116.603 33.04C117.443 32.512 118.103 31.828 118.583 30.988L121.895 32.608C121.511 33.52 120.911 34.348 120.095 35.092C119.303 35.812 118.343 36.388 117.215 36.82C116.111 37.228 114.899 37.432 113.579 37.432ZM126.513 37V17.524H130.401V21.34L129.933 20.836C130.413 19.612 131.181 18.688 132.237 18.064C133.293 17.416 134.517 17.092 135.909 17.092C137.349 17.092 138.621 17.404 139.725 18.028C140.829 18.652 141.693 19.516 142.317 20.62C142.941 21.724 143.253 22.996 143.253 24.436V37H139.221V25.516C139.221 24.532 139.041 23.704 138.681 23.032C138.321 22.336 137.805 21.808 137.133 21.448C136.485 21.064 135.741 20.872 134.901 20.872C134.061 20.872 133.305 21.064 132.633 21.448C131.985 21.808 131.481 22.336 131.121 23.032C130.761 23.728 130.581 24.556 130.581 25.516V37H126.513Z" fill="#001858"/>
<path d="M148.214 37V34.48H150.59V37H148.214ZM154.099 37V23.59H159.751C160.639 23.59 161.395 23.746 162.019 24.058C162.655 24.358 163.141 24.79 163.477 25.354C163.825 25.906 163.999 26.578 163.999 27.37C163.999 27.982 163.831 28.558 163.495 29.098C163.171 29.626 162.649 30.064 161.929 30.412V29.278C162.589 29.53 163.111 29.842 163.495 30.214C163.879 30.586 164.149 31 164.305 31.456C164.461 31.912 164.539 32.392 164.539 32.896C164.539 34.18 164.113 35.188 163.261 35.92C162.421 36.64 161.251 37 159.751 37H154.099ZM156.547 34.84H160.003C160.639 34.84 161.143 34.666 161.515 34.318C161.899 33.958 162.091 33.484 162.091 32.896C162.091 32.308 161.899 31.834 161.515 31.474C161.143 31.114 160.639 30.934 160.003 30.934H156.547V34.84ZM156.547 28.792H159.877C160.381 28.792 160.783 28.648 161.083 28.36C161.383 28.06 161.533 27.676 161.533 27.208C161.533 26.74 161.383 26.368 161.083 26.092C160.783 25.816 160.381 25.678 159.877 25.678H156.547V28.792ZM166.346 37V23.374H168.704V37H166.346ZM175.669 37.216C174.709 37.216 173.833 36.994 173.041 36.55C172.261 36.106 171.637 35.5 171.169 34.732C170.713 33.964 170.485 33.088 170.485 32.104C170.485 31.12 170.713 30.244 171.169 29.476C171.637 28.708 172.261 28.102 173.041 27.658C173.821 27.214 174.697 26.992 175.669 26.992C176.629 26.992 177.499 27.214 178.279 27.658C179.059 28.102 179.677 28.708 180.133 29.476C180.601 30.232 180.835 31.108 180.835 32.104C180.835 33.088 180.601 33.964 180.133 34.732C179.665 35.5 179.041 36.106 178.261 36.55C177.481 36.994 176.617 37.216 175.669 37.216ZM175.669 35.056C176.197 35.056 176.659 34.93 177.055 34.678C177.463 34.426 177.781 34.078 178.009 33.634C178.249 33.178 178.369 32.668 178.369 32.104C178.369 31.528 178.249 31.024 178.009 30.592C177.781 30.148 177.463 29.8 177.055 29.548C176.659 29.284 176.197 29.152 175.669 29.152C175.129 29.152 174.655 29.284 174.247 29.548C173.839 29.8 173.515 30.148 173.275 30.592C173.047 31.024 172.933 31.528 172.933 32.104C172.933 32.668 173.047 33.178 173.275 33.634C173.515 34.078 173.839 34.426 174.247 34.678C174.655 34.93 175.129 35.056 175.669 35.056ZM187.375 40.96C186.643 40.96 185.965 40.84 185.341 40.6C184.717 40.36 184.177 40.024 183.721 39.592C183.277 39.172 182.953 38.674 182.749 38.098L184.945 37.27C185.089 37.726 185.371 38.092 185.791 38.368C186.223 38.656 186.751 38.8 187.375 38.8C187.855 38.8 188.275 38.71 188.635 38.53C189.007 38.35 189.295 38.086 189.499 37.738C189.703 37.402 189.805 36.994 189.805 36.514V34.282L190.255 34.822C189.919 35.41 189.469 35.854 188.905 36.154C188.341 36.454 187.699 36.604 186.979 36.604C186.067 36.604 185.251 36.394 184.531 35.974C183.811 35.554 183.247 34.978 182.839 34.246C182.431 33.514 182.227 32.692 182.227 31.78C182.227 30.856 182.431 30.034 182.839 29.314C183.247 28.594 183.805 28.03 184.513 27.622C185.221 27.202 186.025 26.992 186.925 26.992C187.657 26.992 188.299 27.148 188.851 27.46C189.415 27.76 189.883 28.198 190.255 28.774L189.931 29.368V27.208H192.163V36.514C192.163 37.366 191.953 38.128 191.533 38.8C191.125 39.472 190.561 40 189.841 40.384C189.133 40.768 188.311 40.96 187.375 40.96ZM187.267 34.426C187.771 34.426 188.209 34.318 188.581 34.102C188.965 33.874 189.265 33.562 189.481 33.166C189.697 32.77 189.805 32.314 189.805 31.798C189.805 31.294 189.691 30.844 189.463 30.448C189.247 30.04 188.947 29.722 188.563 29.494C188.191 29.266 187.759 29.152 187.267 29.152C186.775 29.152 186.331 29.266 185.935 29.494C185.539 29.722 185.227 30.04 184.999 30.448C184.783 30.844 184.675 31.294 184.675 31.798C184.675 32.302 184.783 32.752 184.999 33.148C185.227 33.544 185.533 33.856 185.917 34.084C186.313 34.312 186.763 34.426 187.267 34.426Z" fill="#6246EA"/>
</svg>
